<mxfile host="65bd71144e">
    <diagram id="5-0qswJzS5lGCthXrxvJ" name="第 1 页">
        <mxGraphModel dx="859" dy="547" grid="1" gridSize="10" guides="1" tooltips="1" connect="1" arrows="1" fold="1" page="1" pageScale="1" pageWidth="827" pageHeight="1169" math="0" shadow="0">
            <root>
                <mxCell id="0"/>
                <mxCell id="1" parent="0"/>
                <mxCell id="2" value="链上链下协同子系统" style="rounded=0;whiteSpace=wrap;html=1;verticalAlign=top;" parent="1" vertex="1">
                    <mxGeometry x="80" y="360" width="680" height="80" as="geometry"/>
                </mxCell>
                <mxCell id="3" value="区块链协议适配子系统" style="rounded=0;whiteSpace=wrap;html=1;verticalAlign=top;" parent="1" vertex="1">
                    <mxGeometry x="80" y="440" width="680" height="81" as="geometry"/>
                </mxCell>
                <mxCell id="4" value="联盟链适配" style="rounded=1;whiteSpace=wrap;html=1;" parent="1" vertex="1">
                    <mxGeometry x="120" y="474.5" width="120" height="40" as="geometry"/>
                </mxCell>
                <mxCell id="5" value="接口服务子系统" style="rounded=0;whiteSpace=wrap;html=1;verticalAlign=top;" parent="1" vertex="1">
                    <mxGeometry x="80" y="280" width="680" height="80" as="geometry"/>
                </mxCell>
                <mxCell id="6" value="开放链适配" style="rounded=1;whiteSpace=wrap;html=1;" parent="1" vertex="1">
                    <mxGeometry x="280" y="475" width="120" height="40" as="geometry"/>
                </mxCell>
                <mxCell id="8" value="私有链适配" style="rounded=1;whiteSpace=wrap;html=1;" parent="1" vertex="1">
                    <mxGeometry x="440" y="474.5" width="120" height="40" as="geometry"/>
                </mxCell>
                <mxCell id="9" value="跨链协议模块" style="rounded=1;whiteSpace=wrap;html=1;" parent="1" vertex="1">
                    <mxGeometry x="600" y="474.5" width="120" height="40" as="geometry"/>
                </mxCell>
                <mxCell id="10" value="共享数据模块" style="rounded=1;whiteSpace=wrap;html=1;" parent="1" vertex="1">
                    <mxGeometry x="120" y="392.75" width="120" height="40" as="geometry"/>
                </mxCell>
                <mxCell id="11" value="私有数据模块" style="rounded=1;whiteSpace=wrap;html=1;" parent="1" vertex="1">
                    <mxGeometry x="280" y="393.25" width="120" height="40" as="geometry"/>
                </mxCell>
                <mxCell id="12" value="数据交换模块" style="rounded=1;whiteSpace=wrap;html=1;" parent="1" vertex="1">
                    <mxGeometry x="440" y="392.75" width="120" height="40" as="geometry"/>
                </mxCell>
                <mxCell id="13" value="安全处理模块" style="rounded=1;whiteSpace=wrap;html=1;" parent="1" vertex="1">
                    <mxGeometry x="600" y="392.75" width="120" height="40" as="geometry"/>
                </mxCell>
                <mxCell id="14" value="标准接口模块" style="rounded=1;whiteSpace=wrap;html=1;" parent="1" vertex="1">
                    <mxGeometry x="120" y="312.75" width="120" height="40" as="geometry"/>
                </mxCell>
                <mxCell id="15" value="消息事件模块" style="rounded=1;whiteSpace=wrap;html=1;" parent="1" vertex="1">
                    <mxGeometry x="280" y="313.25" width="120" height="40" as="geometry"/>
                </mxCell>
                <mxCell id="16" value="多运行时模块" style="rounded=1;whiteSpace=wrap;html=1;" parent="1" vertex="1">
                    <mxGeometry x="440" y="312.75" width="120" height="40" as="geometry"/>
                </mxCell>
                <mxCell id="17" value="可视化展现模块" style="rounded=1;whiteSpace=wrap;html=1;" parent="1" vertex="1">
                    <mxGeometry x="600" y="312.75" width="120" height="40" as="geometry"/>
                </mxCell>
                <mxCell id="18" value="基础资源适配子系统" style="rounded=0;whiteSpace=wrap;html=1;verticalAlign=top;" parent="1" vertex="1">
                    <mxGeometry x="80" y="521" width="680" height="119" as="geometry"/>
                </mxCell>
                <mxCell id="23" value="" style="group" parent="1" vertex="1" connectable="0">
                    <mxGeometry x="120" y="591" width="600" height="40.5" as="geometry"/>
                </mxCell>
                <mxCell id="19" value="存储资源" style="rounded=1;whiteSpace=wrap;html=1;" parent="23" vertex="1">
                    <mxGeometry width="163.63636363636363" height="40" as="geometry"/>
                </mxCell>
                <mxCell id="20" value="计算资源" style="rounded=1;whiteSpace=wrap;html=1;" parent="23" vertex="1">
                    <mxGeometry x="218.18181818181816" y="0.5" width="163.63636363636363" height="40" as="geometry"/>
                </mxCell>
                <mxCell id="21" value="网络资源" style="rounded=1;whiteSpace=wrap;html=1;" parent="23" vertex="1">
                    <mxGeometry x="436.3636363636363" width="163.63636363636363" height="40" as="geometry"/>
                </mxCell>
                <mxCell id="24" value="iass/paas/saas云适配引擎(kubernetes/docker/wasm等)" style="rounded=0;whiteSpace=wrap;html=1;" parent="1" vertex="1">
                    <mxGeometry x="120" y="551" width="600" height="30" as="geometry"/>
                </mxCell>
                <mxCell id="25" value="用户展现子系统" style="rounded=0;whiteSpace=wrap;html=1;verticalAlign=top;" parent="1" vertex="1">
                    <mxGeometry x="80" y="160" width="680" height="120" as="geometry"/>
                </mxCell>
                <mxCell id="30" value="" style="group" parent="1" vertex="1" connectable="0">
                    <mxGeometry x="120" y="229" width="600" height="40.5" as="geometry"/>
                </mxCell>
                <mxCell id="26" value="桌面客户端" style="rounded=1;whiteSpace=wrap;html=1;" parent="30" vertex="1">
                    <mxGeometry width="163.63636363636363" height="40" as="geometry"/>
                </mxCell>
                <mxCell id="27" value="WEB客户端" style="rounded=1;whiteSpace=wrap;html=1;" parent="30" vertex="1">
                    <mxGeometry x="218.18181818181816" y="0.5" width="163.63636363636363" height="40" as="geometry"/>
                </mxCell>
                <mxCell id="28" value="移动客户端" style="rounded=1;whiteSpace=wrap;html=1;" parent="30" vertex="1">
                    <mxGeometry x="436.3636363636363" width="163.63636363636363" height="40" as="geometry"/>
                </mxCell>
                <mxCell id="31" value="跨端适配(html/css/js/electron等)" style="rounded=0;whiteSpace=wrap;html=1;" parent="1" vertex="1">
                    <mxGeometry x="120" y="189" width="600" height="30" as="geometry"/>
                </mxCell>
                <mxCell id="32" value="2" style="whiteSpace=wrap;html=1;shape=partialRectangle;top=0;left=0;bottom=1;right=0;points=[[0,1],[1,1]];fillColor=none;align=center;verticalAlign=bottom;routingCenterY=0.5;snapToPoint=1;recursiveResize=0;autosize=1;treeFolding=1;treeMoving=1;newEdgeStyle={&quot;edgeStyle&quot;:&quot;entityRelationEdgeStyle&quot;,&quot;startArrow&quot;:&quot;none&quot;,&quot;endArrow&quot;:&quot;none&quot;,&quot;segment&quot;:10,&quot;curved&quot;:1};" vertex="1" parent="1">
                    <mxGeometry x="465" y="110" width="50" height="30" as="geometry"/>
                </mxCell>
                <mxCell id="33" value="" style="edgeStyle=entityRelationEdgeStyle;startArrow=none;endArrow=none;segment=10;curved=1;" edge="1" parent="1" target="32">
                    <mxGeometry relative="1" as="geometry">
                        <mxPoint x="410" y="160" as="sourcePoint"/>
                    </mxGeometry>
                </mxCell>
                <mxCell id="34" value="21" style="whiteSpace=wrap;html=1;shape=partialRectangle;top=0;left=0;bottom=1;right=0;points=[[0,1],[1,1]];fillColor=none;align=center;verticalAlign=bottom;routingCenterY=0.5;snapToPoint=1;recursiveResize=0;autosize=1;treeFolding=1;treeMoving=1;newEdgeStyle={&quot;edgeStyle&quot;:&quot;entityRelationEdgeStyle&quot;,&quot;startArrow&quot;:&quot;none&quot;,&quot;endArrow&quot;:&quot;none&quot;,&quot;segment&quot;:10,&quot;curved&quot;:1};" vertex="1" parent="1">
                    <mxGeometry x="765" y="126" width="50" height="30" as="geometry"/>
                </mxCell>
                <mxCell id="35" value="" style="edgeStyle=entityRelationEdgeStyle;startArrow=none;endArrow=none;segment=10;curved=1;" edge="1" parent="1" target="34">
                    <mxGeometry relative="1" as="geometry">
                        <mxPoint x="710" y="176" as="sourcePoint"/>
                    </mxGeometry>
                </mxCell>
                <mxCell id="38" value="22" style="whiteSpace=wrap;html=1;shape=partialRectangle;top=0;left=0;bottom=1;right=0;points=[[0,1],[1,1]];fillColor=none;align=center;verticalAlign=bottom;routingCenterY=0.5;snapToPoint=1;recursiveResize=0;autosize=1;treeFolding=1;treeMoving=1;newEdgeStyle={&quot;edgeStyle&quot;:&quot;entityRelationEdgeStyle&quot;,&quot;startArrow&quot;:&quot;none&quot;,&quot;endArrow&quot;:&quot;none&quot;,&quot;segment&quot;:10,&quot;curved&quot;:1};" vertex="1" parent="1">
                    <mxGeometry x="765" y="240" width="50" height="30" as="geometry"/>
                </mxCell>
                <mxCell id="39" value="" style="edgeStyle=entityRelationEdgeStyle;startArrow=none;endArrow=none;segment=10;curved=1;" edge="1" parent="1" target="38">
                    <mxGeometry relative="1" as="geometry">
                        <mxPoint x="710" y="290" as="sourcePoint"/>
                    </mxGeometry>
                </mxCell>
                <mxCell id="40" value="23" style="whiteSpace=wrap;html=1;shape=partialRectangle;top=0;left=0;bottom=1;right=0;points=[[0,1],[1,1]];fillColor=none;align=center;verticalAlign=bottom;routingCenterY=0.5;snapToPoint=1;recursiveResize=0;autosize=1;treeFolding=1;treeMoving=1;newEdgeStyle={&quot;edgeStyle&quot;:&quot;entityRelationEdgeStyle&quot;,&quot;startArrow&quot;:&quot;none&quot;,&quot;endArrow&quot;:&quot;none&quot;,&quot;segment&quot;:10,&quot;curved&quot;:1};" vertex="1" parent="1">
                    <mxGeometry x="765" y="318" width="50" height="30" as="geometry"/>
                </mxCell>
                <mxCell id="41" value="" style="edgeStyle=entityRelationEdgeStyle;startArrow=none;endArrow=none;segment=10;curved=1;" edge="1" parent="1" target="40">
                    <mxGeometry relative="1" as="geometry">
                        <mxPoint x="710" y="368" as="sourcePoint"/>
                    </mxGeometry>
                </mxCell>
                <mxCell id="42" value="24" style="whiteSpace=wrap;html=1;shape=partialRectangle;top=0;left=0;bottom=1;right=0;points=[[0,1],[1,1]];fillColor=none;align=center;verticalAlign=bottom;routingCenterY=0.5;snapToPoint=1;recursiveResize=0;autosize=1;treeFolding=1;treeMoving=1;newEdgeStyle={&quot;edgeStyle&quot;:&quot;entityRelationEdgeStyle&quot;,&quot;startArrow&quot;:&quot;none&quot;,&quot;endArrow&quot;:&quot;none&quot;,&quot;segment&quot;:10,&quot;curved&quot;:1};" vertex="1" parent="1">
                    <mxGeometry x="765" y="400" width="50" height="30" as="geometry"/>
                </mxCell>
                <mxCell id="43" value="" style="edgeStyle=entityRelationEdgeStyle;startArrow=none;endArrow=none;segment=10;curved=1;" edge="1" parent="1" target="42">
                    <mxGeometry relative="1" as="geometry">
                        <mxPoint x="710" y="450" as="sourcePoint"/>
                    </mxGeometry>
                </mxCell>
                <mxCell id="44" value="25" style="whiteSpace=wrap;html=1;shape=partialRectangle;top=0;left=0;bottom=1;right=0;points=[[0,1],[1,1]];fillColor=none;align=center;verticalAlign=bottom;routingCenterY=0.5;snapToPoint=1;recursiveResize=0;autosize=1;treeFolding=1;treeMoving=1;newEdgeStyle={&quot;edgeStyle&quot;:&quot;entityRelationEdgeStyle&quot;,&quot;startArrow&quot;:&quot;none&quot;,&quot;endArrow&quot;:&quot;none&quot;,&quot;segment&quot;:10,&quot;curved&quot;:1};" vertex="1" parent="1">
                    <mxGeometry x="765" y="480" width="50" height="30" as="geometry"/>
                </mxCell>
                <mxCell id="45" value="" style="edgeStyle=entityRelationEdgeStyle;startArrow=none;endArrow=none;segment=10;curved=1;" edge="1" parent="1" target="44">
                    <mxGeometry relative="1" as="geometry">
                        <mxPoint x="710" y="530" as="sourcePoint"/>
                    </mxGeometry>
                </mxCell>
            </root>
        </mxGraphModel>
    </diagram>
</mxfile>